<svg width="477" height="103" viewBox="0 0 477 103" fill="none" xmlns="http://www.w3.org/2000/svg">
<path d="M0 101.517C4.12167 100.758 6.11823 97.1349 6.11823 92.6257V8.89764C6.11823 4.38842 4.12167 0.763113 0 0.00585938H21.6525C17.523 0.763113 15.5343 4.38842 15.5343 8.89764V100.328H41.9775C50.701 100.328 56.347 92.2325 57.3072 87.8711C57.3072 87.8711 57.2338 88.4489 57.1262 89.4014L55.6911 101.496H55.6701L0 101.517Z" fill="black"/>
<path d="M63.3179 38.2121C68.4969 38.2121 74.6623 38.6606 78.8522 36.2253V92.6235C78.8522 97.1354 80.8461 100.75 84.9783 101.518H63.3179C67.45 100.75 69.4387 97.1354 69.4387 92.6235V47.1039C69.4387 42.5946 67.45 38.9693 63.3179 38.2121ZM78.8994 27.7213C78.8994 28.7791 78.5875 29.8131 78.0032 30.6927C77.4188 31.5722 76.5882 32.2577 75.6165 32.6625C74.6448 33.0673 73.5755 33.1732 72.5439 32.9668C71.5123 32.7605 70.5647 32.2511 69.821 31.5031C69.0772 30.7552 68.5707 29.8022 68.3655 28.7647C68.1603 27.7273 68.2657 26.6519 68.6682 25.6746C69.0707 24.6974 69.7523 23.8621 70.6268 23.2744C71.5014 22.6867 72.5296 22.373 73.5814 22.373C74.9916 22.3737 76.3439 22.9374 77.341 23.9403C78.3382 24.9431 78.8987 26.3031 78.8994 27.7213Z" fill="black"/>
<path d="M93.463 1.99208C98.6394 1.99208 104.807 2.43535 108.997 0V92.6119C108.997 97.1211 110.991 100.736 115.121 101.504H93.463C97.5926 100.736 99.5812 97.1211 99.5812 92.6119V10.8812C99.5812 6.37201 97.5926 2.74933 93.463 1.98944" fill="black"/>
<path d="M191.305 68.7517C191.304 75.3842 189.347 81.8674 185.682 87.3816C182.018 92.8958 176.809 97.1934 170.716 99.7308C164.623 102.268 157.918 102.932 151.45 101.637C144.982 100.342 139.041 97.148 134.378 92.4578C129.715 87.7675 126.54 81.7921 125.253 75.287C123.967 68.7819 124.628 62.0393 127.152 55.9118C129.676 49.7842 133.95 44.547 139.433 40.8623C144.917 37.1776 151.364 35.2109 157.959 35.2109C166.803 35.2123 175.285 38.7467 181.538 45.0367C187.792 51.3266 191.305 59.8571 191.305 68.7517ZM134.032 68.7517C134.032 84.6039 139.691 101.071 157.959 101.071C176.227 101.071 181.889 84.6013 181.889 68.7517C181.889 52.9022 176.232 36.4194 157.959 36.4194C139.686 36.4194 134.032 52.8863 134.032 68.7517Z" fill="black"/>
<path d="M263.218 101.515H254.959C248.725 101.515 247.893 97.8208 247.683 93.863V89.4145C243.934 98.7627 235.594 102.494 225.677 102.494C215.479 102.494 206.026 96.7363 206.026 83.5622V45.1164C206.026 40.6072 204.029 36.9845 199.905 36.2246H221.56C217.428 36.9845 215.439 40.6072 215.439 45.1164V84.5701C215.361 107.789 247.316 103.079 247.683 84.1955V45.1164C247.683 40.6072 245.689 36.9845 241.557 36.2246H263.218C259.088 36.9845 257.099 40.6072 257.099 45.1164V92.6255C257.099 97.1348 259.088 100.75 263.218 101.517V101.515Z" fill="black"/>
<path d="M334.272 50.5946L328.112 53.6263L282.761 75.9534C287.58 112.28 329.461 103.225 336.282 80.4626L337.2 81.2093C323.723 115.08 272.88 105.602 272.88 68.7581C272.878 61.5128 275.21 54.4617 279.525 48.6599C283.84 42.8582 289.908 38.6179 296.819 36.5736C303.731 34.5293 311.115 34.791 317.867 37.3194C324.618 39.8479 330.374 44.5071 334.272 50.5999M327.784 52.6052C324.654 43.3704 318.108 36.4258 306.231 36.4258C287.958 36.4258 282.302 52.8927 282.302 68.7581C282.299 70.7854 282.405 72.8112 282.622 74.8267L327.784 52.6052Z" fill="black"/>
<path d="M349.825 27.7968V23.5462C349.825 19.0369 347.829 15.4143 343.704 14.6544C348.883 14.6544 355.041 15.1056 359.239 12.6676V36.2374H373.125V20.9763C373.125 16.467 371.137 12.8443 367.007 12.0845C372.186 12.0845 378.352 12.5356 382.541 10.0977V36.219H400.453V37.401H382.541V78.9682C382.541 86.6938 381.138 101.464 392.97 101.464C398.582 101.464 404.417 96.5434 398.023 88.86C394.941 83.4853 402.148 81.0685 403.795 87.2769C406.156 96.1476 401.033 102.456 391.695 102.456C385.611 102.456 381.463 100.966 378.664 98.3903C376.494 100.955 372.944 102.456 368.395 102.456C352.472 102.456 349.823 92.3085 349.823 78.9735V37.4063H345.223V36.2242H349.823V27.7968H349.825ZM377.25 96.852C373.918 92.604 373.125 86.261 373.125 78.9735V37.4063H359.239V78.9735C359.239 86.699 357.838 101.469 369.667 101.469C372.952 101.469 376.303 99.7861 377.25 96.852Z" fill="black"/>
<path d="M474.034 50.5946L467.874 53.6263L422.522 75.9534C427.342 112.28 469.222 103.225 476.044 80.4626L476.962 81.2093C463.485 115.08 412.642 105.602 412.642 68.7581C412.64 61.5128 414.971 54.4617 419.287 48.6599C423.602 42.8582 429.669 38.6179 436.581 36.5736C443.493 34.5293 450.877 34.791 457.628 37.3194C464.38 39.8479 470.135 44.5071 474.034 50.5999M467.546 52.6052C464.416 43.3704 457.87 36.4258 445.993 36.4258C427.72 36.4258 422.063 52.8927 422.063 68.7581C422.06 70.7854 422.167 72.8112 422.383 74.8267L467.546 52.6052Z" fill="black"/>
</svg>
